{
	"asset":{
		"generator":"Khronos glTF Blender I/O v4.1.62",
		"version":"2.0"
	},
	"extensionsUsed":[
		"KHR_materials_specular"
	],
	"scene":0,
	"scenes":[
		{
			"name":"Scene",
			"nodes":[
				0
			]
		}
	],
	"nodes":[
		{
			"mesh":0,
			"name":"texturedMesh",
			"rotation":[
				0.7071068286895752,
				0,
				0,
				0.7071068286895752
			],
			"scale":[
				9.931468963623047,
				9.931468963623047,
				9.931468963623047
			],
			"translation":[
				-0.44058170914649963,
				0.8723402619361877,
				0.9344925880432129
			]
		}
	],
	"materials":[
		{
			"doubleSided":true,
			"extensions":{
				"KHR_materials_specular":{
					"specularFactor":0
				}
			},
			"name":"material_1001",
			"pbrMetallicRoughness":{
				"baseColorTexture":{
					"index":0
				},
				"metallicFactor":0
			}
		}
	],
	"meshes":[
		{
			"name":"texturedMesh",
			"primitives":[
				{
					"attributes":{
						"POSITION":0,
						"NORMAL":1,
						"TEXCOORD_0":2
					},
					"indices":3,
					"material":0
				}
			]
		}
	],
	"textures":[
		{
			"sampler":0,
			"source":0
		}
	],
	"images":[
		{
			"mimeType":"image/png",
			"name":"texture_1001",
			"uri":"tex/texture_1001.png"
		}
	],
	"accessors":[
		{
			"bufferView":0,
			"componentType":5126,
			"count":30258,
			"max":[
				0.3364356458187103,
				0.10897564888000488,
				0.17332811653614044
			],
			"min":[
				-0.3192100524902344,
				-0.2981800436973572,
				-0.2191658914089203
			],
			"type":"VEC3"
		},
		{
			"bufferView":1,
			"componentType":5126,
			"count":30258,
			"type":"VEC3"
		},
		{
			"bufferView":2,
			"componentType":5126,
			"count":30258,
			"type":"VEC2"
		},
		{
			"bufferView":3,
			"componentType":5123,
			"count":30954,
			"type":"SCALAR"
		}
	],
	"bufferViews":[
		{
			"buffer":0,
			"byteLength":363096,
			"byteOffset":0,
			"target":34962
		},
		{
			"buffer":0,
			"byteLength":363096,
			"byteOffset":363096,
			"target":34962
		},
		{
			"buffer":0,
			"byteLength":242064,
			"byteOffset":726192,
			"target":34962
		},
		{
			"buffer":0,
			"byteLength":61908,
			"byteOffset":968256,
			"target":34963
		}
	],
	"samplers":[
		{
			"magFilter":9729,
			"minFilter":9987
		}
	],
	"buffers":[
		{
			"byteLength":1030164,
			"uri":"fox3D.bin"
		}
	]
}
